<?xml version="1.0" encoding="UTF-8"?>
<svg
width="7000"
height="3500"
viewBox="0 0 7000 3500" style="fill:none;stroke:#000000;stroke-width:6;">
<g>
<path d="m 682.58542,882.72191 -86.99239,-12.00693 0.0676,-35.97698 11.2458,30.47156 9.1915,-40.36303 -22.85251,0.30042 -3.14418,-14.86015 34.30431,-6.40328 -40.17996,0.77137 -8.96828,-38.54751 -35.19245,-59.31166 -5.79492,-39.85537 -5.45694,-8.55532 78.84443,25.29147 110.81924,3.89103 18.63846,19.83676 -13.59438,24.07294 -3.12445,-11.27919 -34.80424,41.12111 12.99105,3.18855 20.35753,-8.43249 -21.63179,4.45145 -4.5199,-2.74134 20.11589,-20.64535 14.85256,-1.56882 12.73304,-23.00795 15.33988,11.65103 -19.11144,5.70409 -1.49695,17.02213 18.57367,0.46111 -10.76146,24.27638 -13.31396,-7.44998 -3.85992,15.93126 -4.49017,-19.29823 -23.32963,27.56047 11.54669,6.3614 10.13479,-10.17464 10.97555,3.49932 19.74999,-18.17252 14.70636,1.81915 -1.33778,-56.74508 18.65298,-16.54884 -36.84134,-44.5169 10.53415,-17.42962 -17.98235,-9.49582 -13.18185,-27.15625 h 571.67405 510.7621 498.8969 475.4217 448.0692 254.9353 l -0.1097,-39.98782 30.8763,6.38864 14.1375,53.99904 20.4166,10.308 22.3875,-2.20411 3.0445,5.8246 41.0302,2.47891 4.261,9.33811 31.2905,0.22417 3.5194,-7.42922 48.5796,-0.76356 33.5548,8.16046 -10.4049,7.69118 26.6047,1.82439 9.9405,23.78581 7.5191,-13.09305 25.5266,-1.96802 14.4832,16.55511 36.2369,13.00337 64.5379,-18.78579 11.0506,14.42502 70.4254,-1.89377 7.4119,10.24613 35.397,1.08104 -127.0621,42.1371 -122.6674,82.58087 40.225,7.60523 57.5797,-19.09202 31.6622,-12.6935 7.2658,11.06229 -19.3901,29.33117 20.8128,-8.54815 32.3494,8.14065 40.2091,-10.11778 23.1403,-15.8308 49.8152,-1.68346 16.6791,-15.70668 18.4259,1.96042 8.1915,-13.14456 20.9622,-12.67667 6.2193,14.9817 16.532,12.48211 -3.8596,21.95172 30.2276,-19.7017 -12.5632,18.06024 19.85,-15.24908 41.1747,8.9815 28.3913,30.67098 40.6309,1.6559 31.9274,8.26681 64.6084,-25.33009 56.4973,1.41862 45.7983,-12.43676 -3.259,31.72729 93.6066,-3.20562 -14.3206,31.85556 37.1644,20.15551 -80.3295,-3.01637 -6.9739,20.50817 -76.0572,-28.37888 -14.3154,17.21999 -64.1752,0.86893 -36.6428,34.23912 7.2756,-29.5432 -21.7976,2.60695 -17.9502,23.44904 -3.8429,-27.40904 -60.9031,75.56632 -39.4211,46.22757 10.4205,17.4918 43.5974,-38.0168 20.6056,16.5516 -28.8208,32.1598 8.5869,23.8642 -26.9353,26.9431 5.2195,21.9393 -22.7606,46.7803 16.8136,52.0741 -9.6397,44.3192 18.926,23.6419 16.9062,35.2537 36.5939,6.2847 31.8633,-15.3156 32.8594,-36.6188 26.4008,-50.4254 -9.8821,-57.8182 -25.2038,-43.2373 13.3399,-16.8802 -6.5941,-25.2218 26.352,-34.6367 -3.3282,-32.1087 17.5529,-4.0218 1.9886,-16.7911 h 6.2411 l 7.768,-8.72759 12.2721,5.33869 24.6894,-27.14085 -9.3138,44.39415 15.0982,-22.83106 -5.7442,29.39076 18.9162,-34.46164 -2.368,-22.3808 24.6057,-8.11129 26.1989,-5.05528 -23.6345,-8.81913 V 935.429 l 21.1944,-11.70846 16.1461,-2.38212 26.0837,13.87955 19.8277,-2.93177 15.9334,18.11014 23.2724,0.62854 46.6169,15.27616 2.5976,14.82184 13.0762,14.68112 -15.7015,-2.72972 -2.8745,7.29202 12.4081,16.0926 1.0898,53.4018 -23.3626,4.4694 -1.2987,20.3712 -30.7952,8.3016 -8.7897,24.1492 33.8597,18.2566 10.1955,-20.2508 25.6542,-22.6272 34.3244,-11.0137 21.8476,13.5239 22.4569,85.3173 8.3784,14.4083 -13.5536,43.3523 -14.2377,-17.202 -11.852,4.7154 -11.7175,31.786 -25.0926,4.1251 -6.1415,31.7398 -24.6408,26.0145 35.7782,8.8109 13.0506,8.6147 11.0223,-0.1886 3.0208,-5.4016 5.0633,5.3296 10.6175,1.1394 -35.4072,6.3688 14.0072,2.8491 29.1116,0.3083 13.5635,6.1506 42.2261,-13.5568 27.3035,2.9081 43.7324,-25.4274 82.3085,-24.8136 104.9711,-41.1802 47.0563,-32.7129 15.4807,-6.5875 -7.668,-20.7435 2.5614,-8.5214 -16.3675,-3.3108 -0.9272,-19.131 89.9894,-10.6836 43.6249,6.0099 17.6347,11.8656 16.8138,-7.8408 39.0093,2.7255 2.2223,4.8251 3.7115,-7.3156 22.1354,-5.0657 29.5582,-18.2949 16.6669,0.2695 4.915,-17.5559 -9.6361,-16.0764 5.0755,-3.5092 19.3011,-9.286 -31.6694,-11.8674 62.1581,-31.7314 -5.5196,-10.4084 90.9179,-47.47365 336.4427,0.88202 17.2381,-28.08177 17.0967,3.37277 20.3025,-10.3081 9.2207,11.23758 3.869,-20.71118 20.2817,4.63588 -8.701,-15.55453 35.753,-18.07954 -5.4453,-8.00272 19.0245,-11.32098 -7.5851,-5.85535 0.7527,-11.20456 6.0859,-2.3265 -4.2063,-8.23255 9.5531,-15.27341 12.2102,-6.54105 4.8844,-29.44175 77.894,-73.65356 17.0799,2.69053 -0.017,17.71198 18.1678,8.37318 62.2707,-20.26946 47.3783,29.65873 -2.0291,137.45189 36.13,9.87241 3.573,9.0509 -7.7593,2.32401 5.325,12.89966 -4.746,5.80232 14.0441,15.46019 11.7693,-4.30999 18.7263,23.6343 -14.9401,6.1634 3.8179,8.5119 14.3879,-5.8536 2.6057,8.9796 -28.0342,15.9977 -11.2167,-7.6498 -3.4069,9.1846 -16.6447,-2.2755 1.3029,12.8266 -26.252,-6.2607 -18.0562,22.126 -28.0164,-17.1812 -24.7361,27.192 -23.3942,-10.611 -3.0768,-16.2109 -18.7895,8.7323 2.883,12.4137 -12.5494,32.0895 -29.7205,-3.4019 -11.0995,18.4285 -32.2588,9.6256 -18.3238,-13.3753 -26.1607,18.9973 9.144,10.7996 -20.1668,5.4365 -1.2382,12.5981 -36.0448,28.5792 -7.3334,22.7276 4.1978,19.1882 18.1427,3.1357 -34.6742,17.1304 -9.5682,16.6299 6.7819,7.3571 11.2569,-5.1337 22.0637,21.1506 -7.4367,7.496 16.1757,6.1697 1.6484,13.9855 25.8107,9.5222 25.6896,-7.5412 0.7551,-14.4544 6.5306,0.7948 1.9939,26.5051 -49.2725,3.0758 -23.8487,12.7077 0.4802,-22.1141 -36.3477,21.4583 -18.154,-21.0686 -11.4184,-1.8083 -8.3267,-8.65 2.2438,11.4833 -7.8934,2.2336 4.0649,5.5066 -1.1652,15.1716 -7.0999,10.1716 -34.3109,5.7723 -26.0451,-2.1389 -77.1987,9.0051 -4.9258,-6.5175 -21.4532,16.9079 -7.5519,-1.2537 -43.8174,15.2516 -18.8435,19.4782 -6.7165,-0.4613 -1.058,-10.4266 5.2692,-21.6186 -10.4914,-19.3153 -3.661,2.8979 9.0414,29.4994 -13.3337,30.5793 -9.8699,2.931 -11.9235,16.9933 6.5628,5.4271 20.9046,4.2772 -5.1061,34.5252 -6.4264,3.0926 -6.3069,32.6738 -15.4488,12.5436 -9.1884,2.0568 3.1425,8.4487 -7.1326,3.4825 2.7509,9.4938 -14.053,1.649 -6.669,3.5727 5.2742,3.2497 -21.0935,26.5952 -16.9879,5.9165 2.5357,-11.5858 4.9816,-12.8933 -13.56,-1.5782 -14.2003,-0.1823 -18.1736,-16.6544 -17.9833,-12.2924 0.9989,-10.1254 -4.0029,-4.5495 13.7727,-16.235 31.4617,-11.1867 -33.9313,8.7779 -15.4163,15.3864 1.8525,9.7792 -1.3457,10.597 18.5533,20.1141 0.4573,19.2212 8.2201,8.4794 1.3833,5.8505 15.4368,14.1481 h 6.494 l 1.7304,9.3316 -9.3931,2.7374 -3.8987,7.9333 14.5125,-0.5424 0.7056,13.5715 -8.6361,5.0385 6.1174,5.8074 -8.4161,11.2852 -6.5909,-0.7724 -15.0754,23.0118 -48.2959,6.3473 6.5852,-14.464 -13.9881,-6.0842 3.1411,-13.2039 -15.2045,3.1014 -26.6405,-22.5865 6.0545,-12.4938 17.337,-1.1069 -25.5898,-10.3389 3.4748,-10.7798 13.1388,4.6072 -2.1432,-12.655 -8.6874,-3.4891 -8.3018,9.1872 4.6229,-18.8594 11.4391,6.585 3.3824,-15.2343 -8.6961,-5.8554 30.497,-30.11 -5.3361,-0.4554 1.4114,-9.8106 -11.6552,1.5929 3.6937,11.1324 -21.0424,14.5529 -8.8414,-4.0644 -5.7948,14.7902 -11.708,-3.2456 12.2528,12.47 -12.8025,33.1449 17.5106,44.3816 -24.0251,-14.9464 -6.6491,-16.3393 4.2071,25.8725 24.0534,12.1743 6.6189,21.0521 -42.6543,-19.4726 -25.9333,-22.5246 -22.6734,6.6087 15.9019,-26.4582 -28.4246,30.4789 32.9442,1.4235 78.9507,46.4219 -7.368,27.8814 -79.7528,-56.989 83.9277,63.861 2.7533,23.2497 -17.597,-13.024 5.8398,17.115 -11.8494,0.8388 -32.1613,-27.3513 34.3047,34.6637 21.0252,6.6726 -10.08,14.1864 -29.5185,-24.786 -58.1406,-11.3001 52.878,19.4136 23.1984,26.9129 16.1858,-0.398 -0.04,-8.0611 32.7804,3.2547 7.682,21.3922 -9.7532,19.5572 24.6838,45.4748 -19.8525,-22.5484 1.168,11.6607 -21.4538,-10.8224 9.1656,13.9348 -54.7599,11.8311 -15.7902,-23.837 6.321,33.3079 64.5225,-5.3043 2.4812,33.7658 8.29,-25.2528 13.7829,-7.5711 12.9413,23.4797 -7.3168,18.1073 -12.9014,-5.9448 -22.3142,25.4859 -39.851,-5.0759 -7.6495,-6.2817 1.316,10.0396 -43.5297,-15.6178 54.7021,26.7066 -2.0648,6.4514 -21.1477,1.585 14.0867,6.8872 -22.0175,12.7208 -30.4993,-18.2276 30.3965,26.5194 30.4037,-11.9411 17.5155,8.1364 -21.138,23.4911 -57.7732,1.1725 -22.1838,13.6834 -11.8324,-19.141 4.8682,23.5295 -33.348,16.7005 -14.4165,17.4953 -7.2704,28.5784 -1.7706,-31.0876 -7.471,31.3333 -31.5847,-3.7615 -23.6849,5.322 -40.3396,26.508 -18.2701,37.2885 -10.0865,-12.3368 8.1677,19.0187 -19.5878,17.8841 -14.0927,-3.2756 -9.1426,5.8135 -0.028,6.6765 -22.0757,13.378 -8.3773,-6.8367 4.7891,13.3871 -49.0099,21.9833 -23.7197,-5.1908 16.8303,16.7967 -19.1722,10.7957 -4.8735,-13.8684 -0.9429,9.4004 -15.0997,-21.4313 5.6464,25.2469 10.3002,5.8141 -14.5741,10.0823 3.4432,-9.4844 -13.1956,17.0464 8.2605,2.5348 -14.85,15.9196 -9.2511,-2.9905 2.7954,6.8938 -16.2217,9.6934 -13.5336,36.0075 7.5397,11.7573 -11.9823,8.687 -11.6042,44.5549 6.7965,0.1915 -0.8055,13.4047 -6.5855,-1.8453 9.0123,11.7149 9.7277,45.0972 18.9323,54.9342 51.3079,84.5295 -16.3895,-0.3711 5.1399,-12.3304 -15.3323,-4.336 14.7931,42.9979 36.7082,68.357 35.2459,89.0385 -10.4926,88.9019 -14.8542,23.0932 -8.5288,19.8188 3.4799,11.1962 -11.9833,15.2548 -13.0497,-2.5707 -15.8092,7.7945 -12.7138,-3.1094 -23.9266,6.8894 -8.499,-9.8424 4.3695,-13.0477 18.1313,14.7922 3.7607,-5.9979 -20.5443,-11.0932 -20.3742,-42.5446 -38.946,-16.3589 -10.5452,-20.7063 -1.394,-26.8434 -15.6682,-7.4574 24.2624,-19.4692 -28.625,19.7419 -3.1033,-18.7464 2.4709,-16.2555 -3.663,-5.5562 10.7972,-4.4326 -0.4621,-3.816 -17.7907,5.2162 -11.0795,-6.6591 12.2347,22.0044 -14.765,-6.6674 -24.3575,-39.4978 -1.7204,-12.3743 -11.7419,-8.7765 2.4634,-6.6308 25.9832,-29.0436 -4.7545,-14.2642 -4.3175,3.0663 -0.6616,11.01 -3.6124,-0.9504 -2.966,-14.9894 -12.8923,-5.4521 -4.6706,12.4654 11.4262,5.0158 -1.8003,17.5771 -23.0503,-16.7114 7.7711,-22.9016 -2.2956,-11.643 16.1186,-29.7561 1.1847,-24.5927 -5.9992,-6.6644 5.5569,-0.9677 0.8117,-8.6008 -10.3636,-7.4872 -6.4491,-19.1835 -24.1681,-1.2079 -36.0818,-35.875 0.9156,-13.4915 -17.9581,-7.3547 -12.3154,-18.4858 -36.3758,-17.8363 -44.7996,11.9145 20.6796,7.4403 -96.2837,24.8783 -38.5266,-44.8544 16.4276,4.5752 -35.864,-24.9851 11.502,19.8528 -65.1894,-26.8048 30.263,-1.2473 -42.4205,-13.6576 -11.6176,13.7972 -33.9313,0.2838 -4.2012,-17.7305 -18.4907,3.1183 -9.3229,22.1035 -16.7879,1.0601 5.9537,-16.4624 -21.5726,21.033 -20.7484,2.6054 -18.4427,-50.2542 -12.7781,45.515 -26.3594,-10.9511 -83.3634,4.2748 -39.2024,15.366 -61.8678,-20.6695 -17.9237,28.382 27.5558,12.5086 41.2988,-14.8521 0.5024,19.7557 24.9315,-11.8477 15.0248,25.9011 -35.5656,18.3299 24.6794,23.573 41.958,22.0326 -13.6489,21.2452 -61.957,-33.7154 -8.8744,-20.7321 -37.9085,-5.735 20.0505,17.4019 -15.4651,31.0921 -22.5695,-25.2141 -31.6785,23.2799 -49.2782,-17.9039 -15.9271,-24.0587 -29.0327,-24.8862 -53.6563,1.5453 16.0737,14.9897 -25.6216,8.2034 -88.6169,-25.7847 -63.6558,5.3915 -4.2519,-8.8121 13.1467,-11.0792 -4.4607,-10.7905 -12.744,5.0074 -3.4528,18.0692 8.0698,12.7342 -26.9463,-0.5144 -34.9858,15.5273 -5.4027,-5.5566 -23.5151,3.6138 9.1427,-15.0442 -3.6332,-12.948 -17.6899,15.8787 -15.0736,-10.1756 13.4542,39.9448 -24.0061,18.7016 1.1063,15.8971 -81.7588,36.8686 -27.1599,1.3978 -19.7874,-11.7225 3.2126,16.4231 -27.735,-15.6252 25.1578,31.5385 -25.6893,11.3047 -12.9953,-14.5473 1.5412,24.0389 -12.1079,8.3267 -15.9619,-6.2041 -13.8274,11.4987 18.3283,-0.4524 -14.9415,28.0853 -14.5365,-7.4101 h -25.4336 l 17.6048,9.2491 15.6001,10.9084 -16.1342,35.8359 -9.9671,-7.0557 -10.8159,9.5328 -13.0705,-18.3103 3.0464,24.6436 26.1305,-1.3105 -1.9378,24.8596 -8.4668,-1.2601 -1.4385,21.0865 8.5601,1.5953 6.4569,25.0442 -2.2064,5.5605 19.5574,39.8474 -3.5886,18.3589 -11.6047,3.8331 -25.7284,-18.9999 -59.6461,-3.4935 -11.6338,-12.3327 -27.81,-5.4785 -19.3434,-13.1284 -26.188,-3.0198 -16.0278,-43.2656 -18.0396,-19.2874 -1.0461,-19.6567 -5.3537,-10.8222 5.5135,-16.0925 -16.0215,-16.1118 -25.4141,-16.4766 -19.8903,-33.0393 -20.4332,-12.1908 -34.488,-64.3637 -4.3719,-19.3093 -75.475,-65.1956 -71.1793,-2.4285 -17.3419,-10.0181 -12.724,12.033 -25.4444,1.1341 -44.0102,83.3976 -129.0186,-63.2424 -31.0558,-43.4106 6.6295,-21.3328 -18.6361,-20.2419 -4.7959,-16.2782 -57.3226,-39.0107 -47.9718,-42.0677 -26.7158,-12.244 -16.6309,-24.7691 -15.9848,-1.9403 h -166.8742 v 44.8379 l -283.1353,-0.9095 -374.3607,-116.0203 6.8565,-22.8579 -238.2348,20.2614 -4.977,-16.0346 -15.1445,-2.6072 -0.8765,-12.027 6.4338,-2.4165 -13.152,-37.218 -57.0342,-40.8917 -27.0596,-14.8812 -8.2334,5.8273 -13.8411,-4.5024 6.8629,-5.7121 -15.1259,-22.7738 -26.9921,4.0868 -45.0711,-14.0962 -4.9888,-13.9587 -30.6701,-14.4469 -11.7046,4.3662 -35.46173,-9.1732 -36.33386,4.713 -7.06627,-10.4274 -15.4864,-1.8428 7.2329,-14.2832 -4.99551,-4.1391 4.63169,-10.5819 -5.65692,-6.5133 2.69393,-24.5433 -26.92502,-7.2516 7.16132,-10.2777 -9.77035,-12.7741 -9.95445,-4.0353 -14.63429,-16.247 H 871.374 l -5.52165,-13.4119 -8.254,-8.691 -2.94884,-12.9705 -11.23564,-1.5741 -29.54874,-25.342 -6.87877,-31.8783 9.51061,-0.5886 5.75642,-20.806 -12.33103,-18.4574 -18.17304,6.3683 -30.16117,-25.552 -0.50251,-18.6144 -9.93255,-14.905 0.21653,-23.8835 9.19397,-1.1478 2.1535,15.7066 32.16614,15.6786 -29.98927,-45.6871 12.67583,-14.3672 76.49341,4.0436 -76.18996,-7.8283 -20.91675,-7.4231 -5.99916,35.2032 -47.59299,-21.5034 4.82431,-12.4868 9.29432,7.4804 -44.94879,-49.2764 -46.1888,-37.8491 5.40586,-12.9229 -12.45534,-29.9908 6.48961,-21.7169 -30.63971,-48.8117 -26.04661,-20.0601 -7.06699,-16.0366 14.52928,-23.881 7.75615,-3.0746 6.08336,-28.4694 -3.79046,-10.4829 12.79856,-33.7495 -11.67209,-30.5374 -12.66945,-4.7139 6.19654,-17.2725 -16.28816,-12.4125 -5.50222,-26.8328 0.65347,-16.399 3.86352,-7.6835 -17.50828,-25.1394 14.79464,-25.2159 0.2622,-21.7983 15.40439,-7.4602 -6.02913,-3.8055 9.72189,-21.782 11.33987,-6.2493 -9.88484,2.1575 10.38166,-72.5103 8.13983,-0.5319 -7.0896,-5.0506 2.61718,-13.3792 4.77768,0.3268 -4.78799,-6.039 7.00038,-41.44185 2.06235,-27.55129 6.46032,-5.58799 -8.11395,-5.84175 12.05835,-0.64005 -7.96454,-8.91356 2.64085,-11.59896 4.72847,-0.82396 -9.38998,-7.4865 -1.99903,-19.48235 6.56023,-3.77871 -10.04979,-23.75859 15.84595,7.8132 5.90627,7.13033 v -11.21948 l 8.14244,3.50436 z"/>
<path d="m 4137.6644,772.64973 19.2422,9.58932 0.2865,17.91704 45.699,-35.21054 -6.5006,-5.44124 32.1844,-2.33952 -58.2921,-1.26961 z"/>
<path d="m 4085.2956,716.70028 54.6223,-20.57895 11.2159,-15.08907 -71.8478,25.7491 z"/>
<path d="m 4258.2393,1006.8474 11.9244,11.6035 30.5761,-47.32199 z"/>
<path d="m 4446.6905,921.46321 6.4211,18.35765 -14.9374,-0.20328 z"/>
<path d="m 4617.7035,897.68933 20.5724,-8.35131 14.4709,16.55436 -22.7318,-0.0704 z"/>
<path d="m 6167.5439,1055.9704 15.2495,11.7763 -18.1008,12.2722 -10.7302,-11.1761 z"/>
<path d="m 6109.6311,1091.0813 10.8154,4.0402"/>
<path d="m 6134.742,1098.2848 2.1498,-6.3313"/>
<path d="m 6130.5937,1084.3485 1.8811,-7.9888"/>
<path d="m 6148.694,1083.8522 10.1365,0.9987"/>
<path d="m 5999.3919,1304.1726 -13.0642,-12.793 -11.2613,2.961 4.2556,5.0562 6.2758,-5.9846 7.8099,14.8438 z"/>
<path d="m 5973.9263,1369.6482 24.1877,-3.6164 6.1438,12.2033 z"/>
<path d="m 5915.2653,1369.1502 32.7676,-4.8985 -12.7854,-10.1944 z"/>
<path d="m 5866.6943,1354.2064 7.8983,-3.2839 0.9954,-15.9034 z"/>
<path d="m 5879.5812,1353.6268 8.7132,-4.9751 -8.1249,-15.8495 z"/>
<path d="m 5905.419,1358.6761 23.5124,-10.6565"/>
<path d="m 5608.6317,1442.4293 -9.59,1.2833 -2.9551,-7.7033 10.8144,-13.5694 15.5094,1.0311 2.4836,-6.7721 21.8698,-7.4603 31.7033,1.4825 7.2582,-5.7073 49.8661,-2.8344 22.6571,-10.8723 -22.5821,19.4583 13.5816,0.1291 2.4213,5.7075 -17.2152,5.5744 -12.4941,-1.2363 -98.2497,20.367 -10.718,-6.8252 z"/>
<path d="m 5755.0408,1415.4722 58.8056,-21.7275 -26.8805,7.5795 -4.4108,-6.2232 -28.7243,13.0425 z"/>
<path d="m 5838.0374,1384.5943 5.3531,-3.9246"/>
<path d="m 5762.6438,1388.6073 11.9447,-3.3667"/>
<path d="m 5762.0104,1393.1763 7.8459,1.7429"/>
<path d="m 5462.3317,1712.5761 21.8948,-31.2711"/>
<path d="m 5395.693,1701.1609 1.1552,6.1818"/>
<path d="m 5390.5726,1682.4084 4.8278,0.4383"/>
<path d="m 5427.2531,1763.5832 10.9544,-19.7258"/>
<path d="m 5409.1998,1773.4899 2.5778,14.3949"/>
<path d="m 5410.1136,1836.7597 14.869,49.0061 26.4232,47.4716 -4.953,44.253 -48.1618,14.3507 -14.8237,10.5144"/>
<path d="m 4932.1624,2670.2384 5.5312,-25.8351 -9.7705,0.599 z"/>
<path d="m 4942.7996,2647.732 -3.772,25.16 2.1459,19.6647"/>
<path d="m 4078.4904,2556.1601 6.4522,-3.0939"/>
<path d="m 4090.1825,2550.5123 4.4251,-4.9754"/>
<path d="m 4103.5238,2538.4573 14.1607,-19.6625 -4.8002,-23.4073"/>
<path d="m 4126.1443,2475.9247 31.3572,5.3748"/>
<path d="m 4064.668,2495.6713 15.7435,-9.4608"/>
<path d="m 4077.7105,2497.9548 -5.7783,-6.5408"/>
<path d="m 4169.0907,2477.5383 21.254,-1.4278"/>
<path d="m 4195.5304,2478.6955 22.2283,-0.7443"/>
<path d="m 3797.394,2540.3739 18.6553,-2.2352 14.9518,18.2537 -20.5461,-4.7951 z"/>
<path d="m 3488.1513,2593.052 32.5399,-23.1963"/>
<path d="m 3522.89,2562.7507 23.7316,-12.6566"/>
<path d="m 3364.2714,2660.4713 39.435,-19.811"/>
<path d="m 3357.163,2670.769 -35.2365,15.7917 -17.9577,16.6706 -25.2797,37.206 -16.8173,37.6238 0.2812,35.1643 16.7393,55.2905 6.6312,28.5621"/>
<path d="m 3276.4209,2906.2846 14.2193,-0.6135 -7.2041,-11.8578 z"/>
<path d="m 1043.9264,2172.4837 12.1748,5.895"/>
<path d="m 1142.9128,2198.6617 16.6655,19.8024"/>
<path d="m 1141.2039,2156.3869 13.0705,2.0206 2.2915,11.4242 16.5323,0.8065 -19.5864,-12.0366"/>
<path d="m 1009.4964,2092.9846 23.1431,6.5087 15.7867,-0.2513 -17.0131,4.5933 h -19.4578 z"/>
<path d="m 1002.3937,2104.9659 -6.24311,-8.1739 -17.20373,4.6713 9.04471,11.1977 z"/>
<path d="m 969.80185,2099.1512 -11.14762,-1.8755"/>
<path d="m 692.58668,600.21822 6.19127,0.0888"/>
<path d="m 714.38191,625.71025 13.94478,8.40622 -5.4938,5.07586 z"/>
<path d="m 687.04232,637.80989 15.23147,7.81489 -1.65643,8.82305 -14.04191,-7.21162 z"/>
<path d="m 700.44613,637.24035 15.60896,2.23254 -6.52726,-10.0174 z"/>
<path d="m 714.19656,643.31201 -5.1741,9.55215 11.18334,4.77505 z"/>
<path d="m 738.35207,648.23516 -5.46387,1.46755 3.92178,10.8114 6.89104,-4.38105 z"/>
<path d="m 754.38794,700.50703 7.10462,7.41849 4.82983,-4.39981 -13.82126,-10.85724 -3.92511,6.26 -5.56786,-21.09639 -9.40103,0.55403 7.92926,-9.48251 7.57443,1.00855 -13.64479,-8.58922 -10.07973,17.74254 14.32626,6.42668 5.71733,15.20439 z"/>
<path d="m 766.75642,693.56619 -17.63651,-10.79985 1.59173,-8.65164 8.42325,-0.28222 -5.67946,10.76141"/>
<path d="m 752.70861,742.81616 -7.85199,-3.17719 1.45766,-9.99192 4.61014,2.6659 z"/>
<path d="m 754.70012,751.86867 7.33188,10.0923 -6.6405,4.05584 1.56165,-5.42772 -6.25406,5.83894 z"/>
<path d="m 728.03554,639.91871 4.3302,3.55035"/>
<path d="m 728.91215,626.73106 11.06734,7.4719"/>
<path d="m 3922.5422,822.12818 17.3883,-8.32339"/>
<path d="m 3933.7018,806.71604 13.903,-2.14835"/>
<path d="m 3955.0765,796.76834 3.2029,-6.60995"/>
</g>
<g>
<path d="m 680.00597,885.01885 25.40246,1.18197 16.67725,17.59629 12.72424,33.44825 44.81835,4.83971 40.35004,-13.98807 54.85096,0.87843 13.96196,8.6566 155.57737,-30.56185 57.2609,-7.18487 212.2195,-0.4038"/>
<path d="m 1296.6717,599.86166 1.3866,263.54515 12.7487,20.08785 -4.4989,6.86642 17.5051,22.79518 23.6362,10.27679 8.7688,16.19657 -58.4588,88.27938 -23.2105,43.6868 31.0022,5.9173 -5.8813,43.8859 0.5635,178.9367"/>
<path d="M 1896.3986,1300.3667 578.63056,1298.3764"/>
<path d="m 1001.7746,1300.3554 0.084,299.0086 315.5662,228.9649 221.2443,171.3497"/>
<path d="m 1597.7008,1800.762 498.913,0.271 700.3232,-0.035 741.6276,0.035"/>
<path d="m 2096.5864,2368.9892 0.17,-568.0132 -0.1426,-400.4832"/>
<path d="m 2795.7045,1400.4928 h -899.2622 l -0.085,-400.54011 700.7935,-1.22956"/>
<path d="m 2596.2338,600.149 -0.614,800.3438"/>
<path d="m 1597.224,1300.3428 0.2064,578.7994 -16.6006,19.7036 -37.0456,-13.1395 -16.123,16.8441 16.2712,73.4121 2.1534,46.6143 44.0313,49.4615 -40.7415,35.2532 -4.235,41.1389 -15.768,13.1023 5.5626,34.6016 19.7568,6.8813 -6.2276,24.7512 -23.2753,2.8709"/>
<path d="m 1396.9108,600.149 0.1832,99.63693 32.0066,28.99254 6.4594,28.53478 89.9665,70.77028 43.1413,4.33421 -14.7718,60.59071 6.1654,20.60145 -11.8459,11.89131 8.2048,18.43508 19.0491,6.13008 27.2825,-20.62 52.8728,64.51004 0.4513,15.88829 29.3097,11.0055 29.2672,38.7616 18.9096,-10.2729 28.8457,4.8499 12.1536,-9.758 81.0251,-0.4393 2.5724,-16.9674 6.6208,-2.6614 31.5494,25.7642"/>
<path d="m 2346.9625,2323.7299 -12.1196,-20.3117 359.5138,-1.8181 2.5441,-450.429 303.8727,0.029 0.51,192.715 42.2303,18.088 21.3833,-6.8079 18.1974,24.1652 73.4702,14.5097 33.386,-7.4696 22.291,28.8553 24.6853,-13.1894 54.2436,25.1311 16.1055,-21.5215 57.702,23.3194 109.8215,-22.3952 77.0856,30.1505 44.0382,9.3696 1.0654,156.921 15.7668,14.202 4.9489,25.7338 28.2866,41.2606 -6.7104,41.4583 -10.958,22.5791 -5.648,51.5051"/>
<path d="m 2701.1507,1851.132 -0.3377,-50.099"/>
<path d="m 2795.7045,1400.4928 1.1827,400.5402"/>
<path d="m 2795.7895,1500.5842 672.6842,0.035"/>
<path d="m 2595.7486,1200.1488 556.2888,0.09 47.7859,21.6649 12.0093,-7.3625 58.6312,-2.9534 15.0713,8.8717 44.1124,12.0885 8.0964,13.5297 21.5324,3.4737 6.9496,32.6922 20.1369,23.2613 6.2469,35.9138 15.3353,13.638 5.3023,30.3261 0.9875,43.0255 10.2541,12.0601 7.0454,13.3749 19.4045,21.3224 17.5349,25.454 23.0644,13.9752 12.9674,-4.6009 13.7997,22.6802 -29.0837,10.9227 20.8947,18.582 8.9364,17.7751 18.1366,4.9726 1.4507,266.1951 17.8362,111.4796 -4.2204,174.1618"/>
<path d="m 3277.9746,600.0817 11.6363,29.52026 -2.0744,52.83167 27.4685,56.99625 5.3439,66.15604 0.6626,29.86625 19.9392,34.00658 0.8662,46.51312 -27.5486,23.88645 15.4649,17.91435 18.2159,5.18552 7.2669,7.32755 0.079,179.94696"/>
<path d="m 2596.5171,905.64375 748.413,0.024"/>
<path d="m 3874.9584,1151.3336 -534.2815,-0.7719 1.1363,6.3448 5.2439,4.7894 -0.3954,9.009 -4.0494,1.0643 1.5301,6.1186 8.7876,1.0342 2.1257,9.1586 -4.3605,9.9075 -13.9186,27.1651 10.3556,8.7696 9.4463,15.1518"/>
<path d="m 3954.5036,841.91669 25.0792,9.19288 8.6386,14.61207 99.8451,19.27607 28.2136,11.28886 29.1974,0.8764 42.151,9.37046 1.2811,12.92389 28.7194,9.96683 -3.5796,34.66625 19.7697,-1.29716 0.6444,25.05417"/>
<path d="m 3794.1628,827.2212 -23.217,8.5917 -0.01,55.53569 -43.9767,19.53042 -16.3001,20.12352 1.1414,11.11385 21.6326,13.11247 -15.1602,68.85405 23.482,15.0065 22.4752,4.8383 8.7179,9.3974 16.9984,2.9099 28.4462,27.4112 17.9939,9.7476 34.2624,14.7157 4.9071,45.7417 3.7377,8.9112 12.3756,5.6728 -7.1603,12.1016 11.1239,45.4005 35.7933,10.1722 4.7134,16.6107 20.8039,12.2424 2.1507,8.5126 24.4015,17.981 -3.3335,27.5553 -7.7177,3.8627 -8.353,18.1901 -67.0318,17.922 -6.2709,20.2986 14.9904,18.2553 -13.8019,19.0364 -6.9665,16.688 -24.891,9.0894 2.8679,17.9073 -10.0822,4.4248 -4.5516,27.7753 16.2875,37.1257 26.6366,19.2821 3.7659,6.5913 27.7023,17.2744 11.6434,35.9436 11.5662,2.6999 11.3473,-7.3625 30.1114,13.6637 -25.4703,53.1229 9.7271,14.0581 75.6634,50.9971 0.4408,10.9112 7.1852,10.1675 -7.1802,13.3135 0.5165,4.3524 12.4383,20.1607 10.6458,6.2054 0.2693,-8.3185 16.5063,12.2065 -3.4547,12.2358 1.3214,10.5176 -11.3062,16.6597 -11.651,-6.4931 -10.8654,18.1609 -9.0676,-10.4846 2.9179,19.4895 -8.7852,2.08 11.421,9.7662 -18.0386,-0.2987 8.1722,10.5085 -11.3551,14.7588 5.3567,9.8169 -11.1818,1.7849 9.5871,6.5319 -26.3677,8.9282 2.5054,18.8973 -18.8436,16.5108 3.0867,22.2628 -21.9317,14.8406 3.2635,7.6704 -19.1886,9.5354 -0.5576,8.2132 -8.427,0.5823 -7.1894,34.4273 -13.7849,2.1064 -2.1048,9.4325 -17.0882,12.4011 6.3168,11.4453 -20.0249,5.3457 3.4631,19.6348 -17.0378,11.2905 8.1535,7.2735 -8.3722,5.8018 10.6165,12.0035 -5.6964,11.0622 8.3264,17.0889 -8.1912,13.5908 10.9125,9.0893 -8.2427,16.7559 8.1432,2.6893 -9.3301,8.4542 25.1306,30.4548 -18.534,21.9568 3.023,7.3275 -26.6305,19.0359 -9.9971,28.5031 -9.3318,7.2919 3.4082,10.8616 -6.5258,11.3225 -8.7564,0.7437 6.872,21.5592 -7.7977,5.6098 192.2792,-0.044 -11.271,31.8416 11.0413,15.1452 14.9526,31.9288"/>
<path d="m 3596.2869,2200.508 285.8663,-0.272"/>
<path d="m 3538.6399,1851.1212 h 445.3378 l 8.8962,11.3212 -0.4221,11.2792 -30.4899,28.2501 65.8663,-0.8097"/>
<path d="m 3424.4889,1440.4679 284.9824,1.4356 117.6315,-3.2621 25.7987,26.1239"/>
<path d="m 3936.4829,1249.046 283.1987,2.9382"/>
<path d="m 4319.5416,1324.989 199.6498,-0.3032 -1.7452,266.3829"/>
<path d="m 4519.1914,1330.8205 134.0174,-3.6147"/>
<path d="m 4079.7012,1800.02 20.1554,-21.3527 48.0164,15.5989 8.7133,-10.1325 -7.6681,-17.3963 42.7617,-17.757 -6.3946,-16.5879 9.4185,-10.7975 10.099,1.1244 5.2323,-4.7705 -2.829,-9.3583 22.2984,1.7535 7.7324,7.111 2.8547,-14.2014 47.9998,18.7826 29.9229,-20.6856 19.3063,14.2021 23.0269,-33.4382 35.1778,21.1077 22.6056,-31.2328 11.6151,0.1493 29.0017,-28.4628 -4.4817,-15.5124 63.4821,-6.3119 -5.3817,-27.2768 15.3303,-8.0571 12.5848,6.8885 12.9092,-3.733 15.8739,9.4491 11.1316,20.6492 24.6209,2.4192 27.8201,15.5658 15.888,-7.4518 26.9797,8.2367 34.3248,-12.8558 7.1927,16.5131 20.0216,10.903 3.7079,5.8726 25.6986,-2.5595 5.4273,-14.4794 8.4553,-0.7026 -1.612,-19.0716 18.176,-23.6641 12.4926,14.8314 12.7838,-9.0062 -3.8123,-11.5649 15.0301,-19.5991 8.1289,0.068 16.0143,-13.2101 5.169,5.5391 49.3504,-27.7679 21.8173,-62.7806 2.7643,-13.1527 -4.8181,-20.2636 15.703,-5.7244 -0.094,-133.9329"/>
<path d="m 4195.0109,1723.5655 -4.661,-10.8346 13.9833,-25.6023 -3.1486,-10.2414 32.6287,-25.9043 14.932,-26.5946 -15.3803,-39.344 13.0217,-20.5462 1.4968,-235.872"/>
<path d="m 6016.9916,1096.2806 3.0258,29.9382"/>
<path d="m 6037.1604,1097.3478 -11.3667,29.1096"/>
<path d="m 6045.7307,1099.4695 -6.8162,22.9065"/>
<path d="m 5924.6338,1191.8048 -23.5445,-33.3503 -10.7989,-189.21204"/>
<path d="m 5845.4653,1002.2468 2.1282,8.1128 -12.1188,15.2713 8.4959,14.4437 -12.6853,15.2668 -34.1725,12.8316 -11.9043,38.5433 -25.9087,39.9714 -7.2916,52.6648 -6.478,9.1504 -1.3507,8.3517 8.2018,10.4743"/>
<path d="m 5663.9604,999.46204 -2.725,14.55236 1.8648,2.9912 -1.747,20.8991 8.4799,15.2944 -3.1707,22.4245 -11.3861,18.9456 7.4465,26.3418 -4.464,21.9443 10.1353,-5.7389 6.1591,7.4306 -2.5537,82.0124 196.3504,3.615 12.5633,-6.7203 4.727,-5.0539 7.2299,-0.8014 13.4847,-6.0305 11.0348,1.6464"/>
<path d="m 5865.3141,1327.014 -5.0145,-28.2528 -41.3859,0.4873 -0.3257,59.5991 -4.2513,10.5196"/>
<path d="m 5634.1721,1401.1116 -7.4856,-11.146 22.63,-12.9108 -4.6223,-8.1592 6.4745,-73.9471 -2.3014,-4.4786 23.7259,-65.1444"/>
<path d="m 5651.1687,1294.9485 67.1285,2.034 0.2558,2.6961 4.2935,-0.3164 0.5719,-2.2785 98.6197,2.0929"/>
<path d="m 5023.1821,1273.4769 -0.075,26.7372 442.1397,0.272 24.6706,16.5444 10.7624,33.493 23.4067,6.3005 5.2933,8.044 -15.4541,10.2099 -28.751,27.1746 8.3408,10.9084 -12.7899,11.0758 0.1553,19.2486 9.5434,1.1194 5.0871,14.406 30.8814,25.178 -37.5374,18.2604 -2.5057,9.7144"/>
<path d="m 5529.2943,1364.693 79.0404,34.0244"/>
<path d="m 4945.9434,1436.1829 1.5681,92.2443 473.2735,0.1001 15.3085,-11.0382 20.7134,2.4176"/>
<path d="m 5420.3898,1528.5273 9.4967,126.2803 64.9197,0.6287"/>
<path d="m 5051.7759,1528.6254 -0.4349,51.538 41.6915,-27.8167 9.5534,3.4655 19.0456,-18.9843 8.5949,8.7442 25.4504,0.111 0.3985,-7.5951 16.1169,-1.549 8.8079,-6.4189 23.6578,10.351 11.5131,0.4477 11.6953,27.5944 -2.9078,0.7641 27.7484,7.2306 -4.9309,9.0703 9.3328,7.8533 17.1295,4.4871 15.3605,12.0088 7.7547,4.7354 -0.1664,16.7438 -20.8521,3.8376 -14.2056,28.6912"/>
<path d="m 4739.7155,1657.7645 -3.1979,27.8624 32.9815,45.0094 34.8952,17.4091 7.6687,18.9475 23.0994,13.1067 29.3442,-12.607 13.8001,8.9101 33.5577,-8.3699 3.1846,-9.6423 42.8756,-2.7674 18.4763,-15.6472 -5.4086,-7.4663 28.4837,-31.6918 20.1139,-29.8426 15.1423,-29.0821 14.25,11.1406 22.6234,4.673 29.2209,-41.5819 12.3887,5.3918 12.0598,-13.8429 6.743,0.6148 26.3302,-24.8027 8.8857,-27.9775 48.5858,30.674 9.8981,-18.3349"/>
<path d="m 4803.2588,1746.9596 -73.6514,41.8428 -2.5878,8.449 -12.353,5.8137 -1.8379,7.9279 -19.4516,4.8707 -7.4008,10.2747 -59.168,16.4003 -139.2491,-3.9932 -94.2629,-0.8824 -45.1432,-2.9238 -132.2217,2.058 -2.9272,-3.1105 -20.5027,-1.3611 3.3393,18.9496 -145.1732,-0.3192"/>
<path d="m 3969.6766,2001.3304 212.3952,0.272 -0.5454,-1.3692 145.8469,2.0058 111.9808,0.4915 128.0158,-0.2164 122.2855,-1.2677"/>
<path d="m 4637.3913,1837.6386 167.0074,3.7988 3.9197,-2.0073 25.3909,0.7333 0.5072,1.5135 155.7887,5.6574 408.5945,-0.4046"/>
<path d="m 4566.8978,2002.6404 6.3498,-26.891 18.7518,-1.3784 18.465,-24.3018 38.9058,-5.7112 42.3679,-21.978 9.2891,0.1474 8.0863,-16.2248 10.2388,1.308 19.059,-12.1646 4.6933,9.5973 12.6519,-9.2944 21.4624,-10.0582 13.3183,5.5576 17.1318,-19.92 11.4735,-6.2398 8.3674,1.8303 -2.451,-6.5898 8.106,-20.0556"/>
<path d="m 5140.3754,2114.7005 -106.0455,-92.9307 -5.5702,-1.1004 -108.5663,-2.6894 -0.3469,-12.9076 -13.5302,-15.0291 -11.0421,5.1799 -1.7117,-9.1263 -135.637,-5.6798 -68.2701,20.8293 -21.7094,19.3772 -3.661,9.9345 33.7529,22.5346 16.0544,2.2887 9.5489,16.7929 5.2745,14.3596 12.7874,15.3901 1.9674,3.7163 5.496,2.0786 6.9021,5.8791 19.1658,12.8774 6.8144,13.2408 13.3184,5.6435 11.9804,10.3533 -0.7014,9.7454 17.0765,20.5752 24.2273,11.6395 1.7101,10.7983 9.197,17.1429 1.2147,15.2825 19.4839,12.3285 7.0954,18.4776 -1.1514,15.5881 6.2782,5.7216 h 7.9297 l 8.2434,5.5395"/>
<path d="m 4181.4429,2000.3518 4.7911,8.1568 4.9335,2.0087 -39.8059,302.33 10.1507,149.3003"/>
<path d="m 4259.6476,2456.4182 -3.4939,-9.4394 5.0035,-12.8396 -23.5773,-18.7613 3.2862,-13.5229 258.5553,-0.068"/>
<path d="m 4439.131,2002.7409 40.7108,204.3553 11.6716,32.9886 11.6947,19.5271 -2.6824,8.3106 9.4178,6.8043 -13.3509,9.8847 -2.9954,17.071 -8.2006,17.6382 10.1597,28.8875 -5.8605,35.3388 10.5348,17.2457 7.5333,25.0651 4.7221,4.0756 263.0978,16.5793 5.1498,18.3552 13.9027,-0.1662 4.1231,-20.6519 -3.8976,-7.197 3.4224,-13.422 8.2002,-3.5663 27.3705,9.1587 15.6452,0.4098"/>
</g>
</svg>